<svg width="1440" height="140" viewBox="0 0 1440 140" fill="none" xmlns="http://www.w3.org/2000/svg">
<path d="M1440 23.146L1360 15.532C1280 8.20262 1120 -7.45231 960 4.14657C800 15.3185 640 53.7442 480 61.0736C320 68.6876 160 45.9168 80 34.5314L0 23.146V137H80C160 137 320 137 480 137C640 137 800 137 960 137C1120 137 1280 137 1360 137H1440V23.146Z" fill="#6A7597"/>
<path d="M1439.47 105.768L1399.44 92.3532C1359.42 79.1402 1279.37 52.0085 1199.34 52.2479C1119.31 52.185 1039.3 79.4932 959.278 92.8386C879.257 106.386 799.227 106.474 719.189 95.8254C639.151 84.9752 559.106 63.8924 479.067 53.0422C399.029 42.3937 318.999 42.4819 238.975 50.6354C158.95 58.7888 78.9315 75.0074 38.9222 83.1167L-1.08714 91.226L-1.05236 139.617L38.9627 139.573C78.9779 139.529 159.008 139.441 239.038 139.352C319.069 139.264 399.099 139.176 479.129 139.088C559.16 138.999 639.19 138.911 719.22 138.823C799.25 138.735 879.281 138.646 959.311 138.558C1039.34 138.47 1119.37 138.382 1199.4 138.293C1279.43 138.205 1359.46 138.117 1399.48 138.073L1439.49 138.029L1439.47 105.768Z" fill="#3E4457"/>
</svg>
