<svg width="102" height="98" viewBox="0 0 102 98" fill="none" xmlns="http://www.w3.org/2000/svg">
<ellipse cx="51.1957" cy="49" rx="50.4593" ry="49" fill="#D9D9D9"/>
<path d="M50.5 23C43.4875 23 37.75 29.72 37.75 38C37.75 46.28 43.4875 53 50.5 53C57.5125 53 63.25 46.28 63.25 38C63.25 29.72 57.5125 23 50.5 23ZM37.1762 53C30.4188 53.3 25 58.52 25 65V71H76V65C76 58.52 70.645 53.3 63.8237 53C60.3813 56.66 55.6637 59 50.5 59C45.3363 59 40.6187 56.66 37.1762 53Z" fill="#6A7597" fill-opacity="0.9"/>
</svg>
