<svg width="1440" height="373" viewBox="0 0 1440 373" fill="none" xmlns="http://www.w3.org/2000/svg">
<g clip-path="url(#clip0_126_32)">
<path d="M448.22 82.8L529.708 94C611.196 105.2 774.171 127.6 937.147 157.49C1100.12 187.1 1263.1 224.9 1426.07 209.71C1589.05 194.8 1752.02 127.6 1833.51 94L1915 60.4V38H1833.51C1752.02 38 1589.05 38 1426.07 38C1263.1 38 1100.12 38 937.147 38C774.171 38 611.196 38 529.708 38H448.22V82.8Z" fill="#6A7597" fill-opacity="0.9"/>
</g>
<g clip-path="url(#clip1_126_32)">
<path d="M-0.981445 85L80.5063 127.7C161.994 170 324.97 256 487.945 266.3C650.921 277 813.896 213 976.872 175.7C1139.85 138 1302.82 128 1384.31 122.3L1465.8 117L1465.8 53L1384.31 53C1302.82 53 1139.85 53 976.872 53C813.896 53 650.921 53 487.945 53C324.97 53 161.994 53 80.5063 53L-0.981445 53L-0.981445 85Z" fill="#6A7597" fill-opacity="0.8"/>
</g>
<g clip-path="url(#clip2_126_32)">
<path d="M-2 246L79.4878 214C160.976 182 323.951 118 486.927 86C649.902 54 812.878 54 975.853 59.3C1138.83 65 1301.8 75 1383.29 80.7L1464.78 86V22H1383.29C1301.8 22 1138.83 22 975.853 22C812.878 22 649.902 22 486.927 22C323.951 22 160.976 22 79.4878 22H-2V246Z" fill="#6A7597" fill-opacity="0.95"/>
</g>
<g clip-path="url(#clip3_126_32)">
<path d="M-2 50L79.4878 62.5C160.976 75 323.951 100 486.927 133.359C649.902 166.406 812.878 208.594 975.853 191.641C1138.83 175 1301.8 100 1383.29 62.5L1464.78 25V0H1383.29C1301.8 0 1138.83 0 975.853 0C812.878 0 649.902 0 486.927 0C323.951 0 160.976 0 79.4878 0H-2V50Z" fill="#3E4457"/>
</g>
<defs>
<clipPath id="clip0_126_32">
<rect width="1466.78" height="224" fill="white" transform="translate(448.22 38)"/>
</clipPath>
<clipPath id="clip1_126_32">
<rect width="1466.78" height="320" fill="white" transform="translate(-0.981445 53)"/>
</clipPath>
<clipPath id="clip2_126_32">
<rect width="1466.78" height="320" fill="white" transform="translate(-2 22)"/>
</clipPath>
<clipPath id="clip3_126_32">
<rect width="1466.78" height="250" fill="white" transform="translate(-2)"/>
</clipPath>
</defs>
</svg>
